<?xml version="1.0" encoding="utf-8"?>
<!-- Generator: Adobe Illustrator 15.0.2, SVG Export Plug-In . SVG Version: 6.00 Build 0)  -->
<!DOCTYPE svg PUBLIC "-//W3C//DTD SVG 1.1//EN" "http://www.w3.org/Graphics/SVG/1.1/DTD/svg11.dtd">
<svg version="1.1" id="Layer_1" xmlns="http://www.w3.org/2000/svg" xmlns:xlink="http://www.w3.org/1999/xlink" x="0px" y="0px"
	 width="512px" height="512px" viewBox="0 0 512 512" enable-background="new 0 0 512 512" xml:space="preserve">
<g>
	<path d="M256,0C114.604,0,0,114.604,0,256s114.604,256,256,256s256-114.604,256-256S397.396,0,256,0z M256,469.333
		c-117.636,0-213.333-95.708-213.333-213.333c0-117.636,95.697-213.333,213.333-213.333c117.625,0,213.333,95.697,213.333,213.333
		C469.333,373.625,373.625,469.333,256,469.333z M128,256c0,70.688,57.312,128,128,128s128-57.312,128-128s-57.312-128-128-128
		S128,185.312,128,256z"/>
</g>
</svg>
